<svg width="624" height="305" xmlns="http://www.w3.org/2000/svg" xmlns:xlink="http://www.w3.org/1999/xlink" xml:space="preserve" overflow="hidden"><g><path d="M80.1574 47.7074 231.988 47.7074 231.988 138.806 80.1574 138.806Z" stroke="#FFFFFF" stroke-width="1.02337" stroke-miterlimit="8" fill="#0C445E" transform="matrix(1.00169 0 0 1 -11.481 -47.0376)"/><text fill="#FFFFFF" font-family="Aptos,Aptos_MSFontService,sans-serif" font-weight="700" font-size="110" transform="matrix(0.149104 0 0 0.148853 102.339 42)">Focuses on </text><text fill="#FFFFFF" font-family="Aptos,Aptos_MSFontService,sans-serif" font-weight="700" font-size="110" transform="matrix(0.149104 0 0 0.148853 91.1862 60)">Modernization</text><path d="M247.171 47.7074 399.15 47.7074 399.15 138.806 247.171 138.806Z" stroke="#FFFFFF" stroke-width="1.02337" stroke-miterlimit="8" fill="#1F6388" transform="matrix(1.00169 0 0 1 -11.481 -47.0376)"/><text fill="#FFFFFF" font-family="Aptos,Aptos_MSFontService,sans-serif" font-weight="700" font-size="110" transform="matrix(0.149104 0 0 0.148853 263.886 42)">Evolves MITA </text><text fill="#FFFFFF" font-family="Aptos,Aptos_MSFontService,sans-serif" font-weight="700" font-size="110" transform="matrix(0.149104 0 0 0.148853 270.385 60)">Framework </text><path d="M414.333 47.7074 566.163 47.7074 566.163 138.806 414.333 138.806Z" stroke="#FFFFFF" stroke-width="1.02337" stroke-miterlimit="8" fill="#397FAA" transform="matrix(1.00169 0 0 1 -11.481 -47.0376)"/><text fill="#FFFFFF" font-family="Aptos,Aptos_MSFontService,sans-serif" font-weight="700" font-size="110" transform="matrix(0.149104 0 0 0.148853 417.806 43)">More Accessible</text><path d="M80.1574 153.989 231.988 153.989 231.988 245.235 80.1574 245.235Z" stroke="#FFFFFF" stroke-width="1.02337" stroke-miterlimit="8" fill="#6896B8" transform="matrix(1.00169 0 0 1 -11.481 -47.0376)"/><text fill="#FFFFFF" font-family="Aptos,Aptos_MSFontService,sans-serif" font-weight="700" font-size="110" transform="matrix(0.149104 0 0 0.148853 99.4842 148)">Streamlines </text><text fill="#FFFFFF" font-family="Aptos,Aptos_MSFontService,sans-serif" font-weight="700" font-size="110" transform="matrix(0.149104 0 0 0.148853 105.949 166)">Processes</text><path d="M247.171 153.989 399.15 153.989 399.15 245.235 247.171 245.235Z" stroke="#FFFFFF" stroke-width="1.02337" stroke-miterlimit="8" fill="#9DB0C0" transform="matrix(1.00169 0 0 1 -11.481 -47.0376)"/><text fill="#FFFFFF" font-family="Aptos,Aptos_MSFontService,sans-serif" font-weight="700" font-size="110" transform="matrix(0.149104 0 0 0.148853 277.394 148)">Driven by </text><text fill="#FFFFFF" font-family="Aptos,Aptos_MSFontService,sans-serif" font-weight="700" font-size="110" transform="matrix(0.149104 0 0 0.148853 275.662 166)">Feedback</text><path d="M414.333 153.989 566.163 153.989 566.163 245.235 414.333 245.235Z" stroke="#FFFFFF" stroke-width="1.02337" stroke-miterlimit="8" fill="#9DB0C0" transform="matrix(1.00169 0 0 1 -11.481 -47.0376)"/><text fill="#FFFFFF" font-family="Aptos,Aptos_MSFontService,sans-serif" font-weight="700" font-size="110" transform="matrix(0.149104 0 0 0.148853 417.962 139)">Reflects Current </text><text fill="#FFFFFF" font-family="Aptos,Aptos_MSFontService,sans-serif" font-weight="700" font-size="110" transform="matrix(0.149104 0 0 0.148853 454.445 157)">Trends</text><path d="M80.1574 260.418 231.988 260.418 231.988 351.517 80.1574 351.517Z" stroke="#FFFFFF" stroke-width="1.02337" stroke-miterlimit="8" fill="#6896B8" transform="matrix(1.00169 0 0 1 -11.481 -47.0376)"/><text fill="#FFFFFF" font-family="Aptos,Aptos_MSFontService,sans-serif" font-weight="700" font-size="110" transform="matrix(0.149104 0 0 0.148853 83.6433 245)">Business</text><text fill="#FFFFFF" font-family="Aptos,Aptos_MSFontService,sans-serif" font-weight="700" font-size="110" transform="matrix(0.149104 0 0 0.148853 151.727 245)">-</text><text fill="#FFFFFF" font-family="Aptos,Aptos_MSFontService,sans-serif" font-weight="700" font-size="110" transform="matrix(0.149104 0 0 0.148853 157.309 245)">Driven </text><text fill="#FFFFFF" font-family="Aptos,Aptos_MSFontService,sans-serif" font-weight="700" font-size="110" transform="matrix(0.149104 0 0 0.148853 102.58 263)">Technology </text><text fill="#FFFFFF" font-family="Aptos,Aptos_MSFontService,sans-serif" font-weight="700" font-size="110" transform="matrix(0.149104 0 0 0.148853 107.613 281)">Decisions</text><path d="M247.171 260.418 399.15 260.418 399.15 351.517 247.171 351.517Z" stroke="#FFFFFF" stroke-width="1.02337" stroke-miterlimit="8" fill="#397FAA" transform="matrix(1.00169 0 0 1 -11.481 -47.0376)"/><text fill="#FFFFFF" font-family="Aptos,Aptos_MSFontService,sans-serif" font-weight="700" font-size="110" transform="matrix(0.149104 0 0 0.148853 277.314 254)">Improves </text><text fill="#FFFFFF" font-family="Aptos,Aptos_MSFontService,sans-serif" font-weight="700" font-size="110" transform="matrix(0.149104 0 0 0.148853 270.676 272)">Operations</text><path d="M414.333 260.418 566.163 260.418 566.163 351.517 414.333 351.517Z" stroke="#FFFFFF" stroke-width="1.02337" stroke-miterlimit="8" fill="#1F6388" transform="matrix(1.00169 0 0 1 -11.481 -47.0376)"/><text fill="#FFFFFF" font-family="Aptos,Aptos_MSFontService,sans-serif" font-weight="700" font-size="110" transform="matrix(0.149104 0 0 0.148853 442.737 254)">Enhances </text><text fill="#FFFFFF" font-family="Aptos,Aptos_MSFontService,sans-serif" font-weight="700" font-size="110" transform="matrix(0.149104 0 0 0.148853 434.316 272)">Capabilities</text></g></svg>