<svg width="624" height="305" xmlns="http://www.w3.org/2000/svg" xmlns:xlink="http://www.w3.org/1999/xlink" xml:space="preserve" overflow="hidden"><g><path d="M80.1574 47.7074 231.988 47.7074 231.988 138.806 80.1574 138.806Z" stroke="#FFFFFF" stroke-width="1.02337" stroke-miterlimit="8" fill="#0C445E" transform="matrix(1.00169 0 0 1 -11.481 -47.0376)"/><text fill="#FFFFFF" font-family="Aptos,Aptos_MSFontService,sans-serif" font-weight="700" font-size="110" transform="matrix(0.149104 0 0 0.148853 102.339 31)">Focuses on </text><text fill="#FFFFFF" font-family="Aptos,Aptos_MSFontService,sans-serif" font-weight="700" font-size="110" transform="matrix(0.149104 0 0 0.148853 91.1862 49)">Modernization</text><text fill="#FFFFFF" font-family="Aptos,Aptos_MSFontService,sans-serif" font-weight="400" font-size="46" transform="matrix(0.149104 0 0 0.148853 87.4344 66)">S</text><text fill="#FFFFFF" font-family="Aptos,Aptos_MSFontService,sans-serif" font-weight="400" font-size="46" transform="matrix(0.149104 0 0 0.148853 91.3025 66)">upports states to modernize business </text><text fill="#FFFFFF" font-family="Aptos,Aptos_MSFontService,sans-serif" font-weight="400" font-size="46" transform="matrix(0.149104 0 0 0.148853 92.1122 73)">processes and technology systems</text><text fill="#FFFFFF" font-family="Aptos,Aptos_MSFontService,sans-serif" font-weight="400" font-size="46" transform="matrix(0.149104 0 0 0.148853 194.398 73)">.</text><path d="M247.171 47.7074 399.15 47.7074 399.15 138.806 247.171 138.806Z" stroke="#FFFFFF" stroke-width="1.02337" stroke-miterlimit="8" fill="#1F6388" transform="matrix(1.00169 0 0 1 -11.481 -47.0376)"/><text fill="#FFFFFF" font-family="Aptos,Aptos_MSFontService,sans-serif" font-weight="700" font-size="110" transform="matrix(0.149104 0 0 0.148853 263.886 27)">Evolves MITA </text><text fill="#FFFFFF" font-family="Aptos,Aptos_MSFontService,sans-serif" font-weight="700" font-size="110" transform="matrix(0.149104 0 0 0.148853 270.385 45)">Framework </text><text fill="#FFFFFF" font-family="Aptos,Aptos_MSFontService,sans-serif" font-weight="400" font-size="46" transform="matrix(0.149104 0 0 0.148853 248.28 62)">Updates and refines MITA </text><text fill="#FFFFFF" font-family="Aptos,Aptos_MSFontService,sans-serif" font-weight="400" font-size="46" transform="matrix(0.149104 0 0 0.148853 324.025 62)">3</text><text fill="#FFFFFF" font-family="Aptos,Aptos_MSFontService,sans-serif" font-weight="400" font-size="46" transform="matrix(0.149104 0 0 0.148853 327.753 62)">.</text><text fill="#FFFFFF" font-family="Aptos,Aptos_MSFontService,sans-serif" font-weight="400" font-size="46" transform="matrix(0.149104 0 0 0.148853 329.691 62)">0  </text><text fill="#FFFFFF" font-family="Aptos,Aptos_MSFontService,sans-serif" font-weight="400" font-size="46" transform="matrix(0.149104 0 0 0.148853 336.103 62)">framework to </text><text fill="#FFFFFF" font-family="Aptos,Aptos_MSFontService,sans-serif" font-weight="400" font-size="46" transform="matrix(0.149104 0 0 0.148853 254.944 70)">better meet the evolving needs of State </text><text fill="#FFFFFF" font-family="Aptos,Aptos_MSFontService,sans-serif" font-weight="400" font-size="46" transform="matrix(0.149104 0 0 0.148853 283.472 77)">Medicaid Agencies</text><text fill="#FFFFFF" font-family="Aptos,Aptos_MSFontService,sans-serif" font-weight="400" font-size="46" transform="matrix(0.149104 0 0 0.148853 338.79 77)">.</text><path d="M414.333 47.7074 566.163 47.7074 566.163 138.806 414.333 138.806Z" stroke="#FFFFFF" stroke-width="1.02337" stroke-miterlimit="8" fill="#397FAA" transform="matrix(1.00169 0 0 1 -11.481 -47.0376)"/><text fill="#FFFFFF" font-family="Aptos,Aptos_MSFontService,sans-serif" font-weight="700" font-size="110" transform="matrix(0.149104 0 0 0.148853 417.806 40)">More Accessible</text><text fill="#FFFFFF" font-family="Aptos,Aptos_MSFontService,sans-serif" font-weight="400" font-size="46" transform="matrix(0.149104 0 0 0.148853 420.041 57)">Guidance and tools designed to be more </text><text fill="#FFFFFF" font-family="Aptos,Aptos_MSFontService,sans-serif" font-weight="400" font-size="46" transform="matrix(0.149104 0 0 0.148853 437.905 64)">accessible for stakeholders</text><text fill="#FFFFFF" font-family="Aptos,Aptos_MSFontService,sans-serif" font-weight="400" font-size="46" transform="matrix(0.149104 0 0 0.148853 518.123 64)">.</text><path d="M80.1574 153.989 231.988 153.989 231.988 245.235 80.1574 245.235Z" stroke="#FFFFFF" stroke-width="1.02337" stroke-miterlimit="8" fill="#6896B8" transform="matrix(1.00169 0 0 1 -11.481 -47.0376)"/><text fill="#FFFFFF" font-family="Aptos,Aptos_MSFontService,sans-serif" font-weight="700" font-size="110" transform="matrix(0.149104 0 0 0.148853 99.486 133)">Streamlines </text><text fill="#FFFFFF" font-family="Aptos,Aptos_MSFontService,sans-serif" font-weight="700" font-size="110" transform="matrix(0.149104 0 0 0.148853 105.951 151)">Processes</text><text fill="#FFFFFF" font-family="Aptos,Aptos_MSFontService,sans-serif" font-weight="400" font-size="46" transform="matrix(0.149104 0 0 0.148853 86.4673 168)">Reduces workload for state agencies by </text><text fill="#FFFFFF" font-family="Aptos,Aptos_MSFontService,sans-serif" font-weight="400" font-size="46" transform="matrix(0.149104 0 0 0.148853 74.2244 176)">simplifying  and streamlining MITA guidance and </text><text fill="#FFFFFF" font-family="Aptos,Aptos_MSFontService,sans-serif" font-weight="400" font-size="46" transform="matrix(0.149104 0 0 0.148853 100.805 183)">provides tools for ease of use</text><text fill="#FFFFFF" font-family="Aptos,Aptos_MSFontService,sans-serif" font-weight="400" font-size="46" transform="matrix(0.149104 0 0 0.148853 185.943 183)">.</text><path d="M247.171 153.989 399.15 153.989 399.15 245.235 247.171 245.235Z" stroke="#FFFFFF" stroke-width="1.02337" stroke-miterlimit="8" fill="#9DB0C0" transform="matrix(1.00169 0 0 1 -11.481 -47.0376)"/><text fill="#FFFFFF" font-family="Aptos,Aptos_MSFontService,sans-serif" font-weight="700" font-size="110" transform="matrix(0.149104 0 0 0.148853 277.394 126)">Driven by </text><text fill="#FFFFFF" font-family="Aptos,Aptos_MSFontService,sans-serif" font-weight="700" font-size="110" transform="matrix(0.149104 0 0 0.148853 275.662 144)">Feedback</text><text fill="#FFFFFF" font-family="Aptos,Aptos_MSFontService,sans-serif" font-weight="400" font-size="46" transform="matrix(0.149104 0 0 0.148853 249.4 161)">Integrates feedback from state agencies to </text><text fill="#FFFFFF" font-family="Aptos,Aptos_MSFontService,sans-serif" font-weight="400" font-size="46" transform="matrix(0.149104 0 0 0.148853 255.652 168)">improve efficiencies and align with key </text><text fill="#FFFFFF" font-family="Aptos,Aptos_MSFontService,sans-serif" font-weight="400" font-size="46" transform="matrix(0.149104 0 0 0.148853 248.459 176)">processes such as submitting an Advanced </text><text fill="#FFFFFF" font-family="Aptos,Aptos_MSFontService,sans-serif" font-weight="400" font-size="46" transform="matrix(0.149104 0 0 0.148853 246.338 183)">Planning Document</text><text fill="#FFFFFF" font-family="Aptos,Aptos_MSFontService,sans-serif" font-weight="400" font-size="46" transform="matrix(0.149104 0 0 0.148853 304.339 183)">, </text><text fill="#FFFFFF" font-family="Aptos,Aptos_MSFontService,sans-serif" font-weight="400" font-size="46" transform="matrix(0.149104 0 0 0.148853 307.619 183)">Certification outcomes</text><text fill="#FFFFFF" font-family="Aptos,Aptos_MSFontService,sans-serif" font-weight="400" font-size="46" transform="matrix(0.149104 0 0 0.148853 375.462 183)">, </text><text fill="#FFFFFF" font-family="Aptos,Aptos_MSFontService,sans-serif" font-weight="400" font-size="46" transform="matrix(0.149104 0 0 0.148853 261.093 191)">and State procurement processes</text><text fill="#FFFFFF" font-family="Aptos,Aptos_MSFontService,sans-serif" font-weight="400" font-size="46" transform="matrix(0.149104 0 0 0.148853 360.098 191)">.</text><path d="M414.333 153.989 566.163 153.989 566.163 245.235 414.333 245.235Z" stroke="#FFFFFF" stroke-width="1.02337" stroke-miterlimit="8" fill="#9DB0C0" transform="matrix(1.00169 0 0 1 -11.481 -47.0376)"/><text fill="#FFFFFF" font-family="Aptos,Aptos_MSFontService,sans-serif" font-weight="700" font-size="110" transform="matrix(0.149104 0 0 0.148853 417.964 133)">Reflects Current </text><text fill="#FFFFFF" font-family="Aptos,Aptos_MSFontService,sans-serif" font-weight="700" font-size="110" transform="matrix(0.149104 0 0 0.148853 454.446 151)">Trends</text><text fill="#FFFFFF" font-family="Aptos,Aptos_MSFontService,sans-serif" font-weight="400" font-size="46" transform="matrix(0.149104 0 0 0.148853 408.895 168)">Provides guidance that reflects current trends in </text><text fill="#FFFFFF" font-family="Aptos,Aptos_MSFontService,sans-serif" font-weight="400" font-size="46" transform="matrix(0.149104 0 0 0.148853 416.388 176)">healthcare and technology to remain at the </text><text fill="#FFFFFF" font-family="Aptos,Aptos_MSFontService,sans-serif" font-weight="400" font-size="46" transform="matrix(0.149104 0 0 0.148853 439.381 183)">forefront of advancements</text><text fill="#FFFFFF" font-family="Aptos,Aptos_MSFontService,sans-serif" font-weight="400" font-size="46" transform="matrix(0.149104 0 0 0.148853 516.766 183)">.</text><path d="M80.1574 260.418 231.988 260.418 231.988 351.517 80.1574 351.517Z" stroke="#FFFFFF" stroke-width="1.02337" stroke-miterlimit="8" fill="#6896B8" transform="matrix(1.00169 0 0 1 -11.481 -47.0376)"/><text fill="#FFFFFF" font-family="Aptos,Aptos_MSFontService,sans-serif" font-weight="700" font-size="110" transform="matrix(0.149104 0 0 0.148853 83.6449 234)">Business</text><text fill="#FFFFFF" font-family="Aptos,Aptos_MSFontService,sans-serif" font-weight="700" font-size="110" transform="matrix(0.149104 0 0 0.148853 151.728 234)">-</text><text fill="#FFFFFF" font-family="Aptos,Aptos_MSFontService,sans-serif" font-weight="700" font-size="110" transform="matrix(0.149104 0 0 0.148853 157.311 234)">Driven </text><text fill="#FFFFFF" font-family="Aptos,Aptos_MSFontService,sans-serif" font-weight="700" font-size="110" transform="matrix(0.149104 0 0 0.148853 102.582 252)">Technology </text><text fill="#FFFFFF" font-family="Aptos,Aptos_MSFontService,sans-serif" font-weight="700" font-size="110" transform="matrix(0.149104 0 0 0.148853 107.615 270)">Decisions</text><text fill="#FFFFFF" font-family="Aptos,Aptos_MSFontService,sans-serif" font-weight="400" font-size="46" transform="matrix(0.149104 0 0 0.148853 74.2448 287)">Ensures technology decisions are closely tied to </text><text fill="#FFFFFF" font-family="Aptos,Aptos_MSFontService,sans-serif" font-weight="400" font-size="46" transform="matrix(0.149104 0 0 0.148853 105.045 295)">Medicaid</text><text fill="#FFFFFF" font-family="Aptos,Aptos_MSFontService,sans-serif" font-weight="400" font-size="46" transform="matrix(0.149104 0 0 0.148853 132.182 295)">’</text><text fill="#FFFFFF" font-family="Aptos,Aptos_MSFontService,sans-serif" font-weight="400" font-size="46" transform="matrix(0.149104 0 0 0.148853 133.972 295)">s business goals</text><text fill="#FFFFFF" font-family="Aptos,Aptos_MSFontService,sans-serif" font-weight="400" font-size="46" transform="matrix(0.149104 0 0 0.148853 181.983 295)">.</text><path d="M247.171 260.418 399.15 260.418 399.15 351.517 247.171 351.517Z" stroke="#FFFFFF" stroke-width="1.02337" stroke-miterlimit="8" fill="#397FAA" transform="matrix(1.00169 0 0 1 -11.481 -47.0376)"/><text fill="#FFFFFF" font-family="Aptos,Aptos_MSFontService,sans-serif" font-weight="700" font-size="110" transform="matrix(0.149104 0 0 0.148853 277.314 243)">Improves </text><text fill="#FFFFFF" font-family="Aptos,Aptos_MSFontService,sans-serif" font-weight="700" font-size="110" transform="matrix(0.149104 0 0 0.148853 270.676 261)">Operations</text><text fill="#FFFFFF" font-family="Aptos,Aptos_MSFontService,sans-serif" font-weight="400" font-size="46" transform="matrix(0.149104 0 0 0.148853 249.2 278)">Helps states improve policies</text><text fill="#FFFFFF" font-family="Aptos,Aptos_MSFontService,sans-serif" font-weight="400" font-size="46" transform="matrix(0.149104 0 0 0.148853 335.83 278)">, </text><text fill="#FFFFFF" font-family="Aptos,Aptos_MSFontService,sans-serif" font-weight="400" font-size="46" transform="matrix(0.149104 0 0 0.148853 339.11 278)">make better </text><text fill="#FFFFFF" font-family="Aptos,Aptos_MSFontService,sans-serif" font-weight="400" font-size="46" transform="matrix(0.149104 0 0 0.148853 248.838 286)">decisions</text><text fill="#FFFFFF" font-family="Aptos,Aptos_MSFontService,sans-serif" font-weight="400" font-size="46" transform="matrix(0.149104 0 0 0.148853 277.168 286)">, </text><text fill="#FFFFFF" font-family="Aptos,Aptos_MSFontService,sans-serif" font-weight="400" font-size="46" transform="matrix(0.149104 0 0 0.148853 280.448 286)">and streamline daily operations</text><text fill="#FFFFFF" font-family="Aptos,Aptos_MSFontService,sans-serif" font-weight="400" font-size="46" transform="matrix(0.149104 0 0 0.148853 372.445 286)">.</text><path d="M414.333 260.418 566.163 260.418 566.163 351.517 414.333 351.517Z" stroke="#FFFFFF" stroke-width="1.02337" stroke-miterlimit="8" fill="#1F6388" transform="matrix(1.00169 0 0 1 -11.481 -47.0376)"/><text fill="#FFFFFF" font-family="Aptos,Aptos_MSFontService,sans-serif" font-weight="700" font-size="110" transform="matrix(0.149104 0 0 0.148853 442.737 243)">Enhances </text><text fill="#FFFFFF" font-family="Aptos,Aptos_MSFontService,sans-serif" font-weight="700" font-size="110" transform="matrix(0.149104 0 0 0.148853 434.316 261)">Capabilities</text><text fill="#FFFFFF" font-family="Aptos,Aptos_MSFontService,sans-serif" font-weight="400" font-size="46" transform="matrix(0.149104 0 0 0.148853 415.58 278)">Strengthens the overall capabilities of State </text><text fill="#FFFFFF" font-family="Aptos,Aptos_MSFontService,sans-serif" font-weight="400" font-size="46" transform="matrix(0.149104 0 0 0.148853 447.43 286)">Medicaid Enterprises</text><text fill="#FFFFFF" font-family="Aptos,Aptos_MSFontService,sans-serif" font-weight="400" font-size="46" transform="matrix(0.149104 0 0 0.148853 509.457 286)">.</text></g></svg>